<?xml version="1.0" encoding="UTF-8" standalone="no"?>
<!-- Created with Inkscape (http://www.inkscape.org/) -->

<svg
   xmlns:dc="http://purl.org/dc/elements/1.1/"
   xmlns:cc="http://creativecommons.org/ns#"
   xmlns:rdf="http://www.w3.org/1999/02/22-rdf-syntax-ns#"
   xmlns:svg="http://www.w3.org/2000/svg"
   xmlns="http://www.w3.org/2000/svg"
   xmlns:sodipodi="http://sodipodi.sourceforge.net/DTD/sodipodi-0.dtd"
   xmlns:inkscape="http://www.inkscape.org/namespaces/inkscape"
   width="256"
   height="42"
   viewBox="0 0 67.733332 11.1125"
   version="1.1"
   id="svg8"
   inkscape:version="0.92.1 r15371"
   sodipodi:docname="title.svg">
  <defs
     id="defs2" />
  <sodipodi:namedview
     id="base"
     pagecolor="#ffffff"
     bordercolor="#666666"
     borderopacity="1.0"
     inkscape:pageopacity="0.0"
     inkscape:pageshadow="2"
     inkscape:zoom="1.979899"
     inkscape:cx="104.6474"
     inkscape:cy="29.439709"
     inkscape:document-units="mm"
     inkscape:current-layer="text4487"
     showgrid="false"
     units="px"
     inkscape:window-width="1350"
     inkscape:window-height="851"
     inkscape:window-x="53"
     inkscape:window-y="188"
     inkscape:window-maximized="0" />
  <metadata
     id="metadata5">
    <rdf:RDF>
      <cc:Work
         rdf:about="">
        <dc:format>image/svg+xml</dc:format>
        <dc:type
           rdf:resource="http://purl.org/dc/dcmitype/StillImage" />
        <dc:title></dc:title>
      </cc:Work>
    </rdf:RDF>
  </metadata>
  <g
     inkscape:label="レイヤー 1"
     inkscape:groupmode="layer"
     id="layer1"
     transform="translate(0,-285.8875)">
    <g
       aria-label="NormalMap Maker"
       style="font-style:normal;font-weight:normal;font-size:7.55674648px;line-height:125%;font-family:sans-serif;letter-spacing:0px;word-spacing:0px;fill:#000000;fill-opacity:1;stroke:none;stroke-width:0.18891865px;stroke-linecap:butt;stroke-linejoin:miter;stroke-opacity:1"
       id="text4487">
      <g
         id="g4527"
         transform="translate(0.52916667,0.52916667)">
        <path
           id="path4484"
           style="font-style:normal;font-variant:normal;font-weight:normal;font-stretch:normal;font-family:'Rounded M+ 1c';-inkscape-font-specification:'Rounded M+ 1c';stroke-width:0.18891865px"
           d="m 3.5637286,293.59836 q -0.083124,0.0831 -0.2040322,0.0831 -0.1209079,0 -0.2115889,-0.0831 -0.083124,-0.0831 -0.083124,-0.21159 v -4.91188 q 0,-0.12846 0.090681,-0.21915 0.090681,-0.0907 0.2191456,-0.0907 0.3098266,0 0.4685183,0.27205 l 2.5088398,4.25444 q 0,0.008 0.015114,0.008 0.00756,0 0.00756,-0.008 v -4.23177 q 0,-0.12847 0.083124,-0.21159 0.090681,-0.0831 0.2115889,-0.0831 0.1209079,0 0.2040322,0.0831 0.090681,0.0831 0.090681,0.21159 v 4.91188 q 0,0.12847 -0.090681,0.21915 -0.090681,0.0907 -0.2191457,0.0907 -0.3098266,0 -0.4685183,-0.27204 L 3.6770798,289.155 q 0,-0.008 -0.015114,-0.008 -0.00756,0 -0.00756,0.008 v 4.23177 q 0,0.12847 -0.090681,0.21159 z"
           inkscape:connector-curvature="0" />
        <path
           id="path4486"
           style="font-style:normal;font-variant:normal;font-weight:normal;font-stretch:normal;font-family:'Rounded M+ 1c';-inkscape-font-specification:'Rounded M+ 1c';stroke-width:0.18891865px"
           d="m 10.913019,291.71673 q 0,-1.58691 -1.2090798,-1.58691 -1.2090794,0 -1.2090794,1.58691 0,1.58692 1.2090794,1.58692 1.2090798,0 1.2090798,-1.58692 z m 0.113351,1.5038 q -0.476075,0.53653 -1.3224308,0.53653 -0.8463556,0 -1.3224306,-0.53653 -0.476075,-0.53653 -0.476075,-1.5038 0,-0.96726 0.476075,-1.50379 0.476075,-0.53653 1.3224306,-0.53653 0.8463558,0 1.3224308,0.53653 0.476075,0.53653 0.476075,1.50379 0,0.96727 -0.476075,1.5038 z"
           inkscape:connector-curvature="0" />
        <path
           id="path4488"
           style="font-style:normal;font-variant:normal;font-weight:normal;font-stretch:normal;font-family:'Rounded M+ 1c';-inkscape-font-specification:'Rounded M+ 1c';stroke-width:0.18891865px"
           d="m 12.890171,293.59081 q -0.08312,0.0907 -0.211589,0.0907 -0.128465,0 -0.219146,-0.0907 -0.08312,-0.0907 -0.08312,-0.21159 v -3.34008 q 0,-0.12091 0.08312,-0.20404 0.08312,-0.0831 0.204032,-0.0831 0.120908,0 0.204033,0.0831 0.08312,0.0831 0.08312,0.20404 v 0.58187 q 0,0.008 0.0076,0.008 0.01511,0 0.01511,-0.0151 0.226702,-0.37784 0.634767,-0.60454 0.415621,-0.23426 0.929479,-0.25693 0.105795,-0.008 0.181362,0.068 0.07557,0.0756 0.07557,0.18136 0,0.0982 -0.07557,0.17381 -0.06801,0.0756 -0.173805,0.0831 -0.748118,0.0302 -1.156182,0.43829 -0.408064,0.40051 -0.408064,1.12596 v 1.55669 q 0,0.12091 -0.09068,0.21159 z"
           inkscape:connector-curvature="0" />
        <path
           id="path4490"
           style="font-style:normal;font-variant:normal;font-weight:normal;font-stretch:normal;font-family:'Rounded M+ 1c';-inkscape-font-specification:'Rounded M+ 1c';stroke-width:0.18891865px"
           d="m 16.26969,293.59836 q -0.08312,0.0831 -0.204033,0.0831 -0.120907,0 -0.211588,-0.0831 -0.08313,-0.0831 -0.08313,-0.20403 v -3.36275 q 0,-0.11335 0.08313,-0.19648 0.08312,-0.0831 0.196475,-0.0831 0.113351,0 0.196475,0.0831 0.08312,0.0831 0.08312,0.19648 l 0.0076,0.24937 q 0,0.008 0.0076,0.008 0.01511,0 0.01511,-0.0151 0.430734,-0.59699 1.027717,-0.59699 0.362724,0 0.58187,0.15869 0.226702,0.1587 0.37028,0.52898 0,0.0151 0.0076,0.0151 0.01511,0 0.01511,-0.0151 0.423178,-0.68767 1.103285,-0.68767 0.60454,0 0.869026,0.34761 0.272043,0.34761 0.272043,1.16374 v 2.20657 q 0,0.12091 -0.08312,0.20403 -0.07557,0.0831 -0.196476,0.0831 -0.120907,0 -0.204032,-0.0831 -0.08312,-0.0831 -0.08312,-0.20403 v -2.05543 q 0,-0.70278 -0.166248,-0.95215 -0.158692,-0.25693 -0.566756,-0.25693 -0.2796,0 -0.551643,0.30227 -0.272043,0.29471 -0.272043,0.61209 v 2.35015 q 0,0.12091 -0.08312,0.20403 -0.08312,0.0831 -0.204032,0.0831 -0.120908,0 -0.204032,-0.0831 -0.08312,-0.0831 -0.08312,-0.20403 v -2.05543 q 0,-0.70278 -0.166249,-0.95215 -0.158692,-0.25693 -0.559199,-0.25693 -0.2796,0 -0.559199,0.30227 -0.272043,0.29471 -0.272043,0.61209 v 2.35015 q 0,0.12091 -0.08312,0.20403 z"
           inkscape:connector-curvature="0" />
        <path
           id="path4492"
           style="font-style:normal;font-variant:normal;font-weight:normal;font-stretch:normal;font-family:'Rounded M+ 1c';-inkscape-font-specification:'Rounded M+ 1c';stroke-width:0.18891865px"
           d="m 23.60847,291.60338 q -0.748118,0 -1.133512,0.24182 -0.377837,0.24181 -0.377837,0.68011 0,0.34005 0.188918,0.55164 0.196476,0.20403 0.513859,0.20403 0.544086,0 0.899253,-0.36272 0.362724,-0.36273 0.362724,-0.95971 v -0.28716 q 0,-0.068 -0.06801,-0.068 z m -0.92948,2.15368 q -0.513858,0 -0.838799,-0.32494 -0.32494,-0.32494 -0.32494,-0.86147 0,-0.62721 0.498746,-1.00505 0.498745,-0.37784 1.594473,-0.37784 h 0.385394 q 0.06801,0 0.06801,-0.0605 v -0.14358 q 0,-0.46096 -0.211589,-0.64232 -0.211589,-0.18892 -0.748118,-0.18892 -0.521415,0 -1.125955,0.19647 -0.09068,0.0302 -0.166249,-0.0227 -0.07557,-0.0529 -0.07557,-0.15113 0,-0.26449 0.249373,-0.34006 0.559199,-0.15869 1.118398,-0.15869 0.869026,0 1.201523,0.31739 0.340053,0.31738 0.340053,1.14106 v 2.27459 q 0,0.11335 -0.08312,0.19647 -0.07557,0.0756 -0.188919,0.0756 -0.113351,0 -0.196475,-0.0756 -0.08312,-0.0831 -0.08312,-0.19647 l -0.0076,-0.39296 q 0,-0.008 -0.0076,-0.008 -0.01511,0 -0.01511,0.0151 -0.445848,0.73301 -1.382885,0.73301 z"
           inkscape:connector-curvature="0" />
        <path
           id="path4494"
           style="font-style:normal;font-variant:normal;font-weight:normal;font-stretch:normal;font-family:'Rounded M+ 1c';-inkscape-font-specification:'Rounded M+ 1c';stroke-width:0.18891865px"
           d="m 26.54958,293.59081 q -0.08312,0.0907 -0.211589,0.0907 -0.128464,0 -0.219145,-0.0907 -0.08313,-0.0907 -0.08313,-0.21159 v -5.06302 q 0,-0.12091 0.08313,-0.21159 0.09068,-0.0907 0.219145,-0.0907 0.128465,0 0.211589,0.0907 0.09068,0.0907 0.09068,0.21159 v 5.06302 q 0,0.12091 -0.09068,0.21159 z"
           inkscape:connector-curvature="0" />
        <path
           id="path4496"
           style="font-style:normal;font-variant:normal;font-weight:normal;font-stretch:normal;font-family:'Rounded M+ 1c';-inkscape-font-specification:'Rounded M+ 1c';stroke-width:0.18891865px"
           d="m 28.646931,293.59836 q -0.08312,0.0831 -0.204032,0.0831 -0.120908,0 -0.204032,-0.0831 -0.08312,-0.0907 -0.08312,-0.21159 v -4.91188 q 0,-0.12846 0.08312,-0.21915 0.09068,-0.0907 0.219145,-0.0907 0.309827,0 0.460962,0.27205 l 1.654927,3.04536 q 0,0.008 0.01511,0.008 0.0076,0 0.0076,-0.008 l 1.654927,-3.03781 q 0.143578,-0.2796 0.468518,-0.2796 0.128465,0 0.219146,0.0982 0.09824,0.0907 0.09824,0.21915 v 4.89677 q 0,0.12091 -0.09068,0.21159 -0.08312,0.0907 -0.211589,0.0907 -0.128465,0 -0.219146,-0.0907 -0.08312,-0.0907 -0.08312,-0.21159 v -4.194 q 0,-0.008 -0.0076,-0.008 -0.0076,0 -0.0076,0.008 l -1.413112,2.60708 q -0.136021,0.24937 -0.415621,0.24937 -0.2796,0 -0.415621,-0.24937 l -1.420668,-2.60708 q 0,-0.008 -0.0076,-0.008 -0.0076,0 -0.0076,0.008 v 4.20155 q 0,0.12091 -0.09068,0.21159 z"
           inkscape:connector-curvature="0" />
        <path
           id="path4498"
           style="font-style:normal;font-variant:normal;font-weight:normal;font-stretch:normal;font-family:'Rounded M+ 1c';-inkscape-font-specification:'Rounded M+ 1c';stroke-width:0.18891865px"
           d="m 36.15385,291.60338 q -0.748118,0 -1.133512,0.24182 -0.377838,0.24181 -0.377838,0.68011 0,0.34005 0.188919,0.55164 0.196475,0.20403 0.513859,0.20403 0.544086,0 0.899253,-0.36272 0.362724,-0.36273 0.362724,-0.95971 v -0.28716 q 0,-0.068 -0.06801,-0.068 z m -0.92948,2.15368 q -0.513859,0 -0.838799,-0.32494 -0.32494,-0.32494 -0.32494,-0.86147 0,-0.62721 0.498745,-1.00505 0.498745,-0.37784 1.594474,-0.37784 h 0.385394 q 0.06801,0 0.06801,-0.0605 v -0.14358 q 0,-0.46096 -0.211589,-0.64232 -0.211589,-0.18892 -0.748118,-0.18892 -0.521416,0 -1.125956,0.19647 -0.09068,0.0302 -0.166248,-0.0227 -0.07557,-0.0529 -0.07557,-0.15113 0,-0.26449 0.249372,-0.34006 0.559199,-0.15869 1.118399,-0.15869 0.869026,0 1.201522,0.31739 0.340054,0.31738 0.340054,1.14106 v 2.27459 q 0,0.11335 -0.08312,0.19647 -0.07557,0.0756 -0.188919,0.0756 -0.113351,0 -0.196475,-0.0756 -0.08312,-0.0831 -0.08312,-0.19647 l -0.0076,-0.39296 q 0,-0.008 -0.0076,-0.008 -0.01511,0 -0.01511,0.0151 -0.445849,0.73301 -1.382885,0.73301 z"
           inkscape:connector-curvature="0" />
        <path
           id="path4500"
           style="font-style:normal;font-variant:normal;font-weight:normal;font-stretch:normal;font-family:'Rounded M+ 1c';-inkscape-font-specification:'Rounded M+ 1c';stroke-width:0.18891865px"
           d="m 38.860699,291.1802 v 1.07306 q 0,0.43074 0.340053,0.74056 0.340054,0.30983 0.793459,0.30983 0.536529,0 0.831242,-0.40051 0.30227,-0.40806 0.30227,-1.18641 0,-1.58691 -1.133512,-1.58691 -0.460962,0 -0.801015,0.31738 -0.332497,0.30983 -0.332497,0.733 z m -0.08312,4.08065 q -0.08312,0.0831 -0.204033,0.0831 -0.120908,0 -0.211588,-0.0831 -0.08312,-0.0831 -0.08312,-0.20403 v -5.0328 q 0,-0.11335 0.07557,-0.18892 0.08312,-0.0831 0.196475,-0.0831 0.113351,0 0.196476,0.0831 0.08312,0.0756 0.08312,0.18892 l 0.0076,0.28716 q 0,0.008 0.0076,0.008 l 0.01511,-0.0151 q 0.498745,-0.62721 1.261976,-0.62721 0.733005,0 1.156183,0.53653 0.430734,0.52897 0.430734,1.50379 0,0.9446 -0.445848,1.49624 -0.438291,0.54409 -1.141069,0.54409 -0.770788,0 -1.239306,-0.58187 -0.0076,-0.008 -0.01511,-0.008 -0.0076,0 -0.0076,0.008 v 1.88163 q 0,0.1209 -0.08312,0.20403 z"
           inkscape:connector-curvature="0" />
        <path
           id="path4502"
           style="font-style:normal;font-variant:normal;font-weight:normal;font-stretch:normal;font-family:'Rounded M+ 1c';-inkscape-font-specification:'Rounded M+ 1c';stroke-width:0.18891865px"
           d="m 45.221592,293.59836 q -0.08312,0.0831 -0.204032,0.0831 -0.120908,0 -0.204032,-0.0831 -0.08312,-0.0907 -0.08312,-0.21159 v -4.91188 q 0,-0.12846 0.08312,-0.21915 0.09068,-0.0907 0.219146,-0.0907 0.309826,0 0.460961,0.27205 l 1.654928,3.04536 q 0,0.008 0.01511,0.008 0.0076,0 0.0076,-0.008 l 1.654927,-3.03781 q 0.143579,-0.2796 0.468519,-0.2796 0.128464,0 0.219145,0.0982 0.09824,0.0907 0.09824,0.21915 v 4.89677 q 0,0.12091 -0.09068,0.21159 -0.08312,0.0907 -0.211589,0.0907 -0.128464,0 -0.219145,-0.0907 -0.08312,-0.0907 -0.08312,-0.21159 v -4.194 q 0,-0.008 -0.0076,-0.008 -0.0076,0 -0.0076,0.008 l -1.413112,2.60708 q -0.136021,0.24937 -0.415621,0.24937 -0.279599,0 -0.415621,-0.24937 l -1.420668,-2.60708 q 0,-0.008 -0.0076,-0.008 -0.0076,0 -0.0076,0.008 v 4.20155 q 0,0.12091 -0.09068,0.21159 z"
           inkscape:connector-curvature="0" />
        <path
           id="path4504"
           style="font-style:normal;font-variant:normal;font-weight:normal;font-stretch:normal;font-family:'Rounded M+ 1c';-inkscape-font-specification:'Rounded M+ 1c';stroke-width:0.18891865px"
           d="m 52.728509,291.60338 q -0.748118,0 -1.133512,0.24182 -0.377837,0.24181 -0.377837,0.68011 0,0.34005 0.188918,0.55164 0.196476,0.20403 0.513859,0.20403 0.544086,0 0.899253,-0.36272 0.362724,-0.36273 0.362724,-0.95971 v -0.28716 q 0,-0.068 -0.06801,-0.068 z m -0.92948,2.15368 q -0.513859,0 -0.838799,-0.32494 -0.32494,-0.32494 -0.32494,-0.86147 0,-0.62721 0.498746,-1.00505 0.498745,-0.37784 1.594473,-0.37784 h 0.385394 q 0.06801,0 0.06801,-0.0605 v -0.14358 q 0,-0.46096 -0.211589,-0.64232 -0.211589,-0.18892 -0.748118,-0.18892 -0.521415,0 -1.125955,0.19647 -0.09068,0.0302 -0.166249,-0.0227 -0.07557,-0.0529 -0.07557,-0.15113 0,-0.26449 0.249373,-0.34006 0.559199,-0.15869 1.118398,-0.15869 0.869026,0 1.201523,0.31739 0.340053,0.31738 0.340053,1.14106 v 2.27459 q 0,0.11335 -0.08312,0.19647 -0.07557,0.0756 -0.188919,0.0756 -0.113351,0 -0.196475,-0.0756 -0.08312,-0.0831 -0.08312,-0.19647 l -0.0076,-0.39296 q 0,-0.008 -0.0076,-0.008 -0.01511,0 -0.01511,0.0151 -0.445848,0.73301 -1.382885,0.73301 z"
           inkscape:connector-curvature="0" />
        <path
           id="path4506"
           style="font-style:normal;font-variant:normal;font-weight:normal;font-stretch:normal;font-family:'Rounded M+ 1c';-inkscape-font-specification:'Rounded M+ 1c';stroke-width:0.18891865px"
           d="m 55.382463,293.59836 q -0.08312,0.0831 -0.204032,0.0831 -0.120908,0 -0.204032,-0.0831 -0.08312,-0.0831 -0.08312,-0.20403 v -5.09325 q 0,-0.1209 0.08312,-0.20403 0.08312,-0.0831 0.204032,-0.0831 0.120908,0 0.204032,0.0831 0.08312,0.0831 0.08312,0.20403 v 3.19651 q 0,0.008 0.0076,0.008 l 0.01511,-0.008 1.632258,-1.50379 q 0.256929,-0.24182 0.619653,-0.24182 0.09824,0 0.128464,0.0907 0.03778,0.0907 -0.03023,0.15114 l -1.753165,1.60203 q -0.04534,0.0453 -0.0076,0.0907 l 1.783393,1.74561 q 0.06045,0.0605 0.02267,0.15869 -0.03778,0.0907 -0.128465,0.0907 -0.355167,0 -0.60454,-0.24937 l -1.662484,-1.64738 q -0.0076,-0.008 -0.01511,-0.008 -0.0076,0 -0.0076,0.008 v 1.60959 q 0,0.12091 -0.08312,0.20403 z"
           inkscape:connector-curvature="0" />
        <path
           id="path4508"
           style="font-style:normal;font-variant:normal;font-weight:normal;font-stretch:normal;font-family:'Rounded M+ 1c';-inkscape-font-specification:'Rounded M+ 1c';stroke-width:0.18891865px"
           d="m 59.987357,290.1147 q -1.050387,0 -1.148625,1.24687 0,0.0605 0.06801,0.0605 h 2.032764 q 0.06045,0 0.06045,-0.0605 -0.04534,-1.24687 -1.012604,-1.24687 z m 0.158692,3.64236 q -0.92948,0 -1.413112,-0.50631 -0.483631,-0.51386 -0.483631,-1.53402 0,-1.05038 0.460961,-1.54157 0.468518,-0.49875 1.27709,-0.49875 1.488679,0 1.57936,1.76072 0.0076,0.18137 -0.128464,0.30983 -0.128465,0.12091 -0.309827,0.12091 h -2.236797 q -0.06045,0 -0.06045,0.068 0.06801,1.38288 1.367771,1.38288 0.430735,0 0.88414,-0.15869 0.08312,-0.0302 0.158691,0.0227 0.07557,0.0453 0.07557,0.13602 0,0.25693 -0.234259,0.31739 -0.483632,0.12091 -0.937037,0.12091 z"
           inkscape:connector-curvature="0" />
        <path
           id="path4510"
           style="font-style:normal;font-variant:normal;font-weight:normal;font-stretch:normal;font-family:'Rounded M+ 1c';-inkscape-font-specification:'Rounded M+ 1c';stroke-width:0.18891865px"
           d="m 62.983133,293.59081 q -0.08312,0.0907 -0.211589,0.0907 -0.128465,0 -0.219146,-0.0907 -0.08312,-0.0907 -0.08312,-0.21159 v -3.34008 q 0,-0.12091 0.08312,-0.20404 0.08313,-0.0831 0.204033,-0.0831 0.120908,0 0.204032,0.0831 0.08312,0.0831 0.08312,0.20404 v 0.58187 q 0,0.008 0.0076,0.008 0.01511,0 0.01511,-0.0151 0.226703,-0.37784 0.634767,-0.60454 0.415621,-0.23426 0.92948,-0.25693 0.105794,-0.008 0.181362,0.068 0.07557,0.0756 0.07557,0.18136 0,0.0982 -0.07557,0.17381 -0.06801,0.0756 -0.173806,0.0831 -0.748117,0.0302 -1.156182,0.43829 -0.408064,0.40051 -0.408064,1.12596 v 1.55669 q 0,0.12091 -0.09068,0.21159 z"
           inkscape:connector-curvature="0" />
      </g>
    </g>
  </g>
</svg>
